{"title":"Despicable Me 2010 PPVRip 7SPEED","uid":5941060,"size":738387315,"categoryP":"video","categoryS":"movies","magnet":"?xt=urn:btih:f984a358991cdbba93b6966561877698848b906b&amp;dn=Despicable+Me+2010+PPVRip+7SPEED&amp;tr=udp%3A%2F%2Ftracker.openbittorrent.com%3A80&amp;tr=udp%3A%2F%2Fopen.demonii.com%3A1337&amp;tr=udp%3A%2F%2Ftracker.coppersurfer.tk%3A6969&amp;tr=udp%3A%2F%2Fexodus.desync.com%3A6969","seeders":3,"leechers":0,"uploader":"IwannaFan2","files":7,"time":1289178747,"description":"Filename:\nDespicable Me 2010 PPVRip 7SPEED\n &lt;a href=&quot;\nhttp://www.imdb.com/title/tt1323594/&quot; rel=&quot;nofollow&quot; target=&quot;_NEW&quot;&gt;\nhttp://www.imdb.com/title/tt1323594/&lt;/a&gt;\n\nVideo\nID                               : 0\nFormat                           : MPEG-4 Visual\nFormat settings, BVOP            : Yes\nFormat settings, QPel            : No\nFormat settings, GMC             : No warppoints\nFormat settings, Matrix          : Default (H.263)\nCodec ID                         : DX50\nCodec ID/Hint                    : DivX 5\nDuration                         : 1h 34mn\nBit rate                         : 894 Kbps\nWidth                            : 704 pixels\nHeight                           : 396 pixels\nDisplay aspect ratio             : 16:9\nFrame rate                       : 30.000 fps\nResolution                       : 24 bits\nColorimetry                      : 4:2:0\nScan type                        : Progressive\nBits/(Pixel*Frame)               : 0.107\nStream size                      : 605 MiB (86%)\nWriting library                  : DivX 2151n\n\nAudio\nID                               : 1\nFormat                           : MPEG Audio\nFormat version                   : Version 1\nFormat profile                   : Layer 3\nCodec ID                         : 55\nCodec ID/Hint                    : MP3\nDuration                         : 1h 34mn\nBit rate mode                    : Constant\nBit rate                         : 128 Kbps\nChannel(s)                       : 2 channels\nSampling rate                    : 48.0 KHz\nResolution                       : 16 bits\nStream size                      : 86.6 MiB (12%)\nAlignment                        : Aligned on interleaves\nInterleave, duration             : 33 ms (1.00 video frame)\n","torrent":{"xt":"urn:btih:f984a358991cdbba93b6966561877698848b906b","amp;dn":"Despicable+Me+2010+PPVRip+7SPEED","amp;tr":["udp%3A%2F%2Ftracker.openbittorrent.com%3A80","udp%3A%2F%2Fopen.demonii.com%3A1337","udp%3A%2F%2Ftracker.coppersurfer.tk%3A6969","udp%3A%2F%2Fexodus.desync.com%3A6969"],"infoHash":"f984a358991cdbba93b6966561877698848b906b","infoHashBuffer":{"type":"Buffer","data":[249,132,163,88,153,28,219,186,147,182,150,101,97,135,118,152,132,139,144,107]},"announce":[],"urlList":[]}}